<svg width="193" height="50" viewBox="0 0 193 50" fill="none" xmlns="http://www.w3.org/2000/svg">
<g clip-path="url(#clip0_387_968)">
<g clip-path="url(#clip1_387_968)">
<path d="M105.539 12.424V4.80918H102.799V3.05176H110.274V4.80918H107.55V12.424H105.539Z" fill="#010101"/>
<path d="M120.774 12.424V8.48951H116.347V12.424H114.352V3.05176H116.347V6.73316H120.774V3.05176H122.783V12.424H120.774Z" fill="#010101"/>
<path d="M127.424 12.424V3.05176H134.056V4.80918H129.418V6.78975H133.957V8.5461H129.418V10.6687H134.056V12.425H127.424V12.424Z" fill="#010101"/>
<path d="M103.375 29.2706V19.8984H105.37V27.5143H109.334V29.2706H103.375Z" fill="#010101"/>
<path d="M113.526 29.2706V19.8984H120.158V21.6559H115.52V23.6364H120.059V25.3928H115.52V27.5154H120.158V29.2717L113.526 29.2706Z" fill="#010101"/>
<path d="M130.981 29.2706L130.406 27.683H126.386L125.798 29.2706H123.521L127.146 19.8984H129.647L133.259 29.2706H130.981ZM128.396 21.894L126.935 25.9266H129.858L128.396 21.894Z" fill="#010101"/>
<path d="M142.226 29.2706L140.385 25.9405H138.924V29.2706H136.928V19.8984H141.312C143.265 19.8984 144.461 21.1775 144.461 22.92C144.461 24.5781 143.42 25.4632 142.409 25.7024L144.516 29.2706H142.226ZM142.423 22.92C142.423 22.1331 141.817 21.6559 141.017 21.6559H138.923V24.1842H141.017C141.818 24.1852 142.423 23.708 142.423 22.92Z" fill="#010101"/>
<path d="M155.228 29.2706L150.76 23.1592V29.2706H148.765V19.8984H150.817L155.158 25.7857V19.8984H157.153V29.2706H155.228Z" fill="#010101"/>
<path d="M161.807 29.2706V19.8984H163.802V29.2706H161.807Z" fill="#010101"/>
<path d="M174.925 29.2706L170.457 23.1592V29.2706H168.461V19.8984H170.514L174.855 25.7857V19.8984H176.85V29.2706H174.925Z" fill="#010101"/>
<path d="M181.056 24.5924C181.056 21.6285 183.303 19.7451 186.043 19.7451C187.996 19.7451 189.218 20.7285 189.921 21.8389L188.263 22.7379C187.842 22.078 187.041 21.5164 186.043 21.5164C184.344 21.5164 183.107 22.8233 183.107 24.5924C183.107 26.3637 184.344 27.6695 186.043 27.6695C186.873 27.6695 187.66 27.3044 188.039 26.9531V25.8288H185.566V24.0864H190.034V27.6834C189.08 28.7522 187.745 29.4547 186.044 29.4547C183.302 29.4547 181.056 27.5425 181.056 24.5924Z" fill="#010101"/>
<path d="M109.796 46.1193V42.1848H105.369V46.1193H103.374V36.7471H105.369V40.4285H109.796V36.7471H111.805V46.1193H109.796Z" fill="#010101"/>
<path d="M116.446 42.3813V36.7471H118.47V42.3119C118.47 43.6187 119.228 44.5177 120.675 44.5177C122.121 44.5177 122.867 43.6187 122.867 42.3119V36.7471H124.904V42.3674C124.904 44.7003 123.526 46.2869 120.675 46.2869C117.823 46.2869 116.446 44.6854 116.446 42.3813Z" fill="#010101"/>
<path d="M129.543 46.1193V36.7471H134.475C136.26 36.7471 137.173 37.8852 137.173 39.1355C137.173 40.3164 136.442 41.1033 135.556 41.2848C136.554 41.4396 137.354 42.409 137.354 43.5888C137.354 44.995 136.415 46.1182 134.629 46.1182L129.543 46.1193ZM135.136 39.4878C135.136 38.8974 134.715 38.4628 134.04 38.4628H131.54V40.5H134.04C134.715 40.5 135.136 40.0772 135.136 39.4878ZM135.319 43.3091C135.319 42.7187 134.896 42.2137 134.109 42.2137H131.538V44.3907H134.109C134.869 44.3907 135.319 43.9839 135.319 43.3091Z" fill="#010101"/>
<path d="M49.478 15.9971L48.2565 14.7757V24.6465L46.6625 26.2395L45.6503 25.2284V3.14746L44.3253 4.47353V24.8376L42.948 26.2149L41.7628 25.0277V7.0029L40.4357 8.32897V25.0031L39.2847 26.1551L37.9746 24.8451V10.775L36.6667 12.0851V24.8376L35.3706 26.1338L34.0477 24.8131V14.6273L32.7184 15.9566L32.7013 25.2946L34.6232 27.2143L32.7099 29.1244L34.5057 30.9192L32.6938 32.7289L37.3041 37.3414L39.1246 35.5209L41.087 37.4823L43.0142 35.554L44.8175 37.3574L49.3936 32.7791L47.459 30.8423L49.3776 28.9237L47.6223 27.1663L49.479 25.3095L49.478 15.9971ZM45.0171 26.2043L45.9909 27.1812L45.0171 28.156L44.0413 27.1812L45.0171 26.2043ZM45.9087 31.0356L44.9339 32.0104L43.9591 31.0356L44.9339 30.0597L45.9087 31.0356ZM43.0045 28.0823L43.9804 29.0571L43.0045 30.033L42.0287 29.0571L43.0045 28.0823ZM42.0415 31.0377L41.0656 32.0125L40.0887 31.0366L41.0656 30.0618L42.0415 31.0377ZM41.0955 26.1882L42.0682 27.163L41.0955 28.1389L40.1186 27.163L41.0955 26.1882ZM40.1688 29.0657L39.195 30.0405L38.2181 29.0657L39.195 28.0909L40.1688 29.0657ZM38.3131 31.0356L37.3372 32.0104L36.3635 31.0356L37.3372 30.0597L38.3131 31.0356ZM37.3223 26.2694L38.2992 27.2453L37.3223 28.2211L36.3496 27.2453L37.3223 26.2694ZM34.4118 29.0742L35.3876 28.1005L36.3614 29.0742L35.3876 30.0512L34.4118 29.0742ZM34.4683 32.7289L35.4442 31.7541L36.4212 32.7289L35.4442 33.7059L34.4683 32.7289ZM37.3041 35.6992L36.3304 34.7244L37.3041 33.7496L38.28 34.7244L37.3041 35.6992ZM38.2234 32.7289L39.1982 31.7541L40.1752 32.7289L39.1982 33.7059L38.2234 32.7289ZM41.0443 35.7334L40.0695 34.7575L41.0443 33.7817L42.0212 34.7575L41.0443 35.7334ZM43.0045 33.7059L42.0287 32.7289L43.0045 31.7541L43.9804 32.7289L43.0045 33.7059ZM44.967 35.6992L43.989 34.7244L44.9648 33.7496L45.9439 34.7244L44.967 35.6992ZM47.6693 32.7289L46.6934 33.7059L45.7175 32.7289L46.6934 31.7541L47.6693 32.7289ZM47.6522 29.0742L46.6763 30.0512L45.7026 29.0742L46.6763 28.1005L47.6522 29.0742Z" fill="#00AB66"/>
<path d="M2.87207 46.08V45.9209H3.38883L4.9135 41.7217H5.13024L6.59191 45.9209H7.10226V46.08H5.08006V45.9209H5.74416L5.35445 44.7913H3.97606L3.58102 45.9209H4.23124V46.08H2.87207ZM4.04653 44.6311H5.29039L4.69142 42.8502L4.04653 44.6311Z" fill="black"/>
<path d="M10.7207 43.017C10.5862 42.449 10.204 41.8809 9.51422 41.8809C8.32695 41.8809 8.38461 42.9721 8.38461 43.9106C8.38461 44.753 8.26289 46.0172 9.43095 46.0172C10.3182 46.0172 10.2157 45.3467 10.2157 44.689H9.57188V44.5299H11.5695V44.689H11.1232C11.1104 45.6275 10.409 46.1763 9.50248 46.1763C8.78179 46.1763 8.36005 45.9328 7.90094 45.384C7.56996 44.9879 7.44824 44.4584 7.44824 43.9544C7.44824 43.3672 7.66605 42.8504 8.04188 42.3966C8.41237 41.9568 8.85866 41.7197 9.43949 41.7197C9.88578 41.7197 10.1666 41.8212 10.5114 42.0518L10.7666 41.7838H10.9065V43.0148H10.7207V43.017Z" fill="black"/>
<path d="M11.7339 46.08V45.9209H12.2506L13.7764 41.7217H13.9931L15.4548 45.9209H15.9651V46.08H13.9429V45.9209H14.606L14.2163 44.7913H12.8379L12.4418 45.9209H13.0931V46.08H11.7339ZM12.9083 44.6311H14.1533L13.5532 42.8502L12.9083 44.6311Z" fill="black"/>
<path d="M19.1671 45.9195H19.7992V46.0797H17.7183V45.9195H18.3503V41.9755H17.7183V41.8164H19.7992V41.9755H19.1671V45.9195ZM20.2135 46.0797V45.9195H20.8712L19.2376 43.8653L21.0121 41.9766H20.2839V41.8175H21.8855V41.9766H21.2662L19.8686 43.4382L21.9036 45.9206H22.1983V46.0808L20.2135 46.0797Z" fill="black"/>
<path d="M23.8118 43.9667V45.9206H24.4439V46.0797H22.364V45.9206H22.995V41.9766H22.364V41.8164H24.4439V41.9766H23.8118V43.8076H25.5094V41.9766H24.8784V41.8164H26.9583V41.9766H26.3262V45.9206H26.9583V46.0797H24.8784V45.9206H25.5094V43.9667H23.8118Z" fill="black"/>
<path d="M27.1545 46.08V45.9209H27.6713L29.196 41.7217H29.4138L30.8754 45.9209H31.3858V46.08H29.3625V45.9209H30.0266L29.6369 44.7913H28.2585L27.8635 45.9209H28.5148V46.08H27.1545ZM28.329 44.6311H29.5729L28.9728 42.8502L28.329 44.6311Z" fill="black"/>
<path d="M35.2455 46.163H35.0544L32.3489 42.1036V45.9206H32.9735V46.0797H31.5193V45.9206H32.1439V41.9766H31.5193V41.8164H33.1529L35.0416 44.6052V41.9766H34.4287V41.8164H35.884V41.9766H35.2455V46.163Z" fill="black"/>
<path d="M38.39 41.9766H37.7579V41.8164H41.2941L41.3379 43.1179H41.166C41.0763 42.6972 40.9813 42.2499 40.5595 42.0588C40.4197 41.9947 40.1634 41.9755 39.9029 41.9755H39.2068V43.8066C39.8196 43.8066 40.1453 43.7105 40.1773 43.0282H40.3556V44.8081H40.1762C40.1186 44.0991 39.8954 43.9465 39.2057 43.9657V45.9185H39.8378V46.0786H37.7568V45.9185H38.3889L38.39 41.9766Z" fill="black"/>
<path d="M41.8098 43.84C41.8098 42.7872 42.7344 41.7217 43.8011 41.7217C44.8666 41.7217 45.7859 42.7872 45.7859 43.84C45.7859 45.008 45.0641 46.175 43.8011 46.175C42.5369 46.1761 41.8098 45.008 41.8098 43.84ZM44.8474 43.1641C44.8474 42.9346 44.8154 42.7168 44.7513 42.5256C44.6232 42.137 44.3627 41.8818 43.8011 41.8818C43.233 41.8818 42.9576 42.137 42.8433 42.5256C42.7868 42.7168 42.7483 42.9346 42.7483 43.1641V44.5553C42.7483 44.8041 42.7611 45.0465 42.8188 45.2707C42.9341 45.7106 43.201 46.017 43.8011 46.017C44.4075 46.017 44.6691 45.7106 44.7833 45.2707C44.841 45.0475 44.8474 44.8041 44.8474 44.5553V43.1641Z" fill="black"/>
<path d="M50.615 41.8164V41.9766H49.9766V44.6565C49.9766 45.2949 49.8559 45.6067 49.5933 45.8437C49.3317 46.0797 48.9302 46.1758 48.3558 46.1758C47.9031 46.1758 47.4942 46.0359 47.2262 45.8373C46.9518 45.6334 46.8301 45.2181 46.8301 44.5038V41.9776H46.198V41.8175H48.2789V41.9776H47.6479V44.3137C47.6479 45.201 47.5518 45.9719 48.7071 45.9719C49.4534 45.9719 49.7726 45.4999 49.7726 44.7985V41.9776H49.1534V41.8175L50.615 41.8164Z" fill="black"/>
<path d="M54.5581 46.163H54.3659L51.6604 42.1036V45.9206H52.2861V46.0797H50.8308V45.9206H51.4565V41.9766H50.8308V41.8164H52.4644L54.3531 44.6052V41.9766H53.7413V41.8164H55.1955V41.9766H54.5581V46.163Z" fill="black"/>
<path d="M55.488 41.8164H57.2423C57.9448 41.8164 58.2897 41.8997 58.6206 42.1036C59.2848 42.5115 59.6029 43.182 59.6029 43.9475C59.6029 44.6874 59.2591 45.453 58.5886 45.8235C58.1039 46.0914 57.5551 46.0797 57.0255 46.0797H55.488V45.9195H56.1137V41.9766H55.488V41.8164ZM56.9305 45.9206C57.7409 45.9206 58.2961 45.9719 58.5715 45.1359C58.7114 44.7088 58.7306 44.1984 58.7306 43.7895C58.7306 42.9727 58.5715 42.456 58.3793 42.2702C58.1167 42.015 57.664 41.9776 56.9305 41.9776V45.9206Z" fill="black"/>
<path d="M59.9348 46.08V45.9209H60.4516L61.9762 41.7217H62.1941L63.6557 45.9209H64.1661V46.08H62.1439V45.9209H62.8069L62.4172 44.7913H61.0388L60.6427 45.9209H61.294V46.08H59.9348ZM61.1093 44.6311H62.3542L61.7542 42.8502L61.1093 44.6311Z" fill="black"/>
<path d="M64.8806 46.0797V45.9195H65.5511V41.9755C64.651 41.9306 64.3766 42.3652 64.2613 43.182H64.0574L64.1268 41.8164H67.7847L67.8541 43.182H67.6566C67.5412 42.3652 67.2679 41.9306 66.3668 41.9755V45.9195H67.0373V46.0797H64.8806Z" fill="black"/>
<path d="M69.7289 45.9206H70.361V46.0797H68.28V45.9206H68.9121V41.9766H68.28V41.8164H70.361V41.9766H69.7289V45.9206Z" fill="black"/>
<path d="M70.8767 43.84C70.8767 42.7872 71.8024 41.7217 72.868 41.7217C73.9346 41.7217 74.8528 42.7872 74.8528 43.84C74.8528 45.008 74.1321 46.175 72.868 46.175C71.6049 46.1761 70.8767 45.008 70.8767 43.84ZM73.9143 43.1641C73.9143 42.9346 73.8823 42.7168 73.8182 42.5256C73.6901 42.137 73.4296 41.8818 72.868 41.8818C72.301 41.8818 72.0255 42.137 71.9113 42.5256C71.8536 42.7168 71.8152 42.9346 71.8152 43.1641V44.5553C71.8152 44.8041 71.828 45.0465 71.8857 45.2707C71.9999 45.7106 72.269 46.017 72.868 46.017C73.4744 46.017 73.736 45.7106 73.8502 45.2707C73.9079 45.0475 73.9143 44.8041 73.9143 44.5553V43.1641Z" fill="black"/>
<path d="M79.0188 46.163H78.8277L76.1211 42.1036V45.9206H76.7468V46.0797H75.2915V45.9206H75.9172V41.9766H75.2915V41.8164H76.9261L78.8149 44.6052V41.9766H78.202V41.8164H79.6573V41.9766H79.0188V46.163Z" fill="black"/>
<path d="M91.8043 2.8916H91.4883V46.1651H91.8043V2.8916Z" fill="#010101"/>
</g>
</g>
<defs>
<clipPath id="clip0_387_968">
<rect width="192.52" height="50" fill="white"/>
</clipPath>
<clipPath id="clip1_387_968">
<rect width="192.52" height="50" fill="white"/>
</clipPath>
</defs>
</svg>
