<svg width="17" height="35" viewBox="0 0 17 35" fill="none" xmlns="http://www.w3.org/2000/svg">
<path d="M16.7841 12.8497L15.5627 11.6282V21.499L13.9686 23.092L12.9564 22.0809V0L11.6314 1.32607V21.6902L10.2541 23.0675L9.06897 21.8802V3.85543L7.74183 5.18151V21.8556L6.59086 23.0077L5.2808 21.6976V7.62759L3.97288 8.93765V21.6902L2.6767 22.9863L1.35383 21.6656V11.4798L0.0245556 12.8091L0.00747381 22.1471L1.92932 24.0668L0.0160147 25.9769L1.81187 27.7717L0 29.5815L4.61029 34.1939L6.43071 32.3735L8.39312 34.3348L10.3203 32.4066L12.1236 34.2099L16.6998 29.6316L14.7651 27.6949L16.6838 25.7762L14.9285 24.0188L16.7852 22.1621L16.7841 12.8497ZM12.3233 23.0568L13.297 24.0337L12.3233 25.0085L11.3474 24.0337L12.3233 23.0568ZM13.2148 27.8881L12.24 28.8629L11.2652 27.8881L12.24 26.9122L13.2148 27.8881ZM10.3107 24.9349L11.2866 25.9097L10.3107 26.8855L9.33483 25.9097L10.3107 24.9349ZM9.34764 27.8902L8.37177 28.865L7.39483 27.8892L8.37177 26.9144L9.34764 27.8902ZM8.40167 23.0408L9.37433 24.0156L8.40167 24.9915L7.42473 24.0156L8.40167 23.0408ZM7.47491 25.9182L6.50118 26.893L5.52424 25.9182L6.50118 24.9434L7.47491 25.9182ZM5.61926 27.8881L4.64339 28.8629L3.66966 27.8881L4.64339 26.9122L5.61926 27.8881ZM4.62844 23.1219L5.60538 24.0978L4.62844 25.0737L3.65578 24.0978L4.62844 23.1219ZM1.71792 25.9268L2.69378 24.953L3.66752 25.9268L2.69378 26.9037L1.71792 25.9268ZM1.7745 29.5815L2.75037 28.6067L3.72731 29.5815L2.75037 30.5584L1.7745 29.5815ZM4.61029 32.5518L3.63656 31.577L4.61029 30.6022L5.58616 31.577L4.61029 32.5518ZM5.52958 29.5815L6.50438 28.6067L7.48132 29.5815L6.50438 30.5584L5.52958 29.5815ZM8.35042 32.5859L7.37562 31.6101L8.35042 30.6342L9.32735 31.6101L8.35042 32.5859ZM10.3107 30.5584L9.33483 29.5815L10.3107 28.6067L11.2866 29.5815L10.3107 30.5584ZM12.2731 32.5518L11.2951 31.577L12.271 30.6022L13.2501 31.577L12.2731 32.5518ZM14.9754 29.5815L13.9996 30.5584L13.0237 29.5815L13.9996 28.6067L14.9754 29.5815ZM14.9584 25.9268L13.9825 26.9037L13.0088 25.9268L13.9825 24.953L14.9584 25.9268Z" fill="#00AB66"/>
</svg>
